<svg viewBox="0 0 884 208" fill="none" xmlns="http://www.w3.org/2000/svg">
<path d="M253.392 188.152C249.792 188.152 246.6 187.408 243.816 185.92C241.032 184.432 238.8 182.392 237.12 179.8C235.44 177.16 234.456 174.112 234.168 170.656L240.648 170.224C240.984 172.768 241.704 174.928 242.808 176.704C243.96 178.48 245.424 179.824 247.2 180.736C249.024 181.648 251.136 182.104 253.536 182.104C255.936 182.104 257.952 181.816 259.584 181.24C261.216 180.616 262.44 179.728 263.256 178.576C264.12 177.376 264.552 175.96 264.552 174.328C264.552 172.696 264.168 171.28 263.4 170.08C262.68 168.832 261.288 167.68 259.224 166.624C257.208 165.568 254.208 164.488 250.224 163.384C246.672 162.376 243.792 161.272 241.584 160.072C239.424 158.872 237.84 157.408 236.832 155.68C235.872 153.952 235.392 151.816 235.392 149.272C235.392 146.392 236.064 143.872 237.408 141.712C238.8 139.504 240.768 137.8 243.312 136.6C245.856 135.352 248.88 134.728 252.384 134.728C255.888 134.728 258.888 135.448 261.384 136.888C263.88 138.28 265.848 140.2 267.288 142.648C268.776 145.096 269.712 147.88 270.096 151L263.616 151.432C263.328 149.368 262.728 147.544 261.816 145.96C260.904 144.328 259.656 143.056 258.072 142.144C256.488 141.232 254.544 140.776 252.24 140.776C249.072 140.776 246.552 141.544 244.68 143.08C242.808 144.568 241.872 146.536 241.872 148.984C241.872 150.568 242.208 151.888 242.88 152.944C243.6 153.952 244.848 154.864 246.624 155.68C248.4 156.448 250.896 157.288 254.112 158.2C258.288 159.352 261.6 160.648 264.048 162.088C266.544 163.528 268.32 165.256 269.376 167.272C270.48 169.24 271.032 171.64 271.032 174.472C271.032 177.16 270.288 179.536 268.8 181.6C267.312 183.664 265.248 185.272 262.608 186.424C259.968 187.576 256.896 188.152 253.392 188.152ZM296.42 187.864C292.82 187.864 289.7 187.048 287.06 185.416C284.468 183.784 282.452 181.48 281.012 178.504C279.62 175.48 278.924 171.952 278.924 167.92C278.924 163.888 279.62 160.384 281.012 157.408C282.452 154.432 284.444 152.128 286.988 150.496C289.58 148.816 292.628 147.976 296.132 147.976C299.444 147.976 302.372 148.768 304.916 150.352C307.46 151.888 309.452 154.144 310.892 157.12C312.332 160.096 313.052 163.72 313.052 167.992V169.792H285.26C285.5 173.872 286.58 176.944 288.5 179.008C290.468 181.072 293.108 182.104 296.42 182.104C298.916 182.104 300.956 181.528 302.54 180.376C304.172 179.176 305.3 177.616 305.924 175.696L312.404 176.2C311.396 179.608 309.476 182.416 306.644 184.624C303.86 186.784 300.452 187.864 296.42 187.864ZM285.26 164.464H306.428C306.14 160.768 305.06 158.056 303.188 156.328C301.316 154.6 298.964 153.736 296.132 153.736C293.204 153.736 290.78 154.648 288.86 156.472C286.988 158.248 285.788 160.912 285.26 164.464ZM333.76 187V148.84H338.8L339.376 158.488L338.8 158.344C339.28 155.08 340.312 152.68 341.896 151.144C343.528 149.608 345.688 148.84 348.376 148.84H356.224V154.312H348.448C346.576 154.312 344.992 154.696 343.696 155.464C342.448 156.184 341.488 157.264 340.816 158.704C340.144 160.096 339.808 161.848 339.808 163.96V187H333.76ZM323.824 187V181.672H351.904V187H323.824ZM323.824 154.168V148.84H337.072V154.168H323.824ZM378.3 187L364.116 148.84H370.74L382.116 180.808L393.492 148.84H400.116L385.932 187H378.3ZM424.784 187V148.84H430.832V187H424.784ZM409.448 187V181.672H444.008V187H409.448ZM410.168 154.168V148.84H430.832V154.168H410.168ZM424.208 142.864V135.808H430.544V142.864H424.208ZM469.467 187.864C465.915 187.864 462.819 187.048 460.179 185.416C457.539 183.784 455.499 181.48 454.059 178.504C452.619 175.48 451.899 171.952 451.899 167.92C451.899 163.888 452.619 160.384 454.059 157.408C455.499 154.432 457.539 152.128 460.179 150.496C462.819 148.816 465.915 147.976 469.467 147.976C472.299 147.976 474.819 148.504 477.027 149.56C479.235 150.568 481.059 152.056 482.499 154.024C483.939 155.992 484.923 158.392 485.451 161.224L479.115 161.656C478.539 159.112 477.387 157.168 475.659 155.824C473.979 154.432 471.915 153.736 469.467 153.736C465.963 153.736 463.203 155.008 461.187 157.552C459.219 160.048 458.235 163.504 458.235 167.92C458.235 172.336 459.219 175.816 461.187 178.36C463.203 180.856 465.963 182.104 469.467 182.104C471.915 182.104 474.027 181.384 475.803 179.944C477.627 178.504 478.827 176.344 479.403 173.464L485.739 173.896C485.211 176.728 484.203 179.2 482.715 181.312C481.227 183.376 479.355 184.984 477.099 186.136C474.843 187.288 472.299 187.864 469.467 187.864ZM512.279 187.864C508.679 187.864 505.559 187.048 502.919 185.416C500.327 183.784 498.311 181.48 496.871 178.504C495.479 175.48 494.783 171.952 494.783 167.92C494.783 163.888 495.479 160.384 496.871 157.408C498.311 154.432 500.303 152.128 502.847 150.496C505.439 148.816 508.487 147.976 511.991 147.976C515.303 147.976 518.231 148.768 520.775 150.352C523.319 151.888 525.311 154.144 526.751 157.12C528.191 160.096 528.911 163.72 528.911 167.992V169.792H501.119C501.359 173.872 502.439 176.944 504.359 179.008C506.327 181.072 508.967 182.104 512.279 182.104C514.775 182.104 516.815 181.528 518.399 180.376C520.031 179.176 521.159 177.616 521.783 175.696L528.263 176.2C527.255 179.608 525.335 182.416 522.503 184.624C519.719 186.784 516.311 187.864 512.279 187.864ZM501.119 164.464H522.287C521.999 160.768 520.919 158.056 519.047 156.328C517.175 154.6 514.823 153.736 511.991 153.736C509.063 153.736 506.639 154.648 504.719 156.472C502.847 158.248 501.647 160.912 501.119 164.464ZM582.855 187V135.88H598.407C601.959 135.88 605.055 136.504 607.695 137.752C610.335 139 612.375 140.8 613.815 143.152C615.255 145.456 615.975 148.24 615.975 151.504C615.975 154.768 615.255 157.576 613.815 159.928C612.375 162.232 610.335 164.008 607.695 165.256C605.055 166.504 601.959 167.128 598.407 167.128H589.047V187H582.855ZM589.047 161.08H597.687C601.719 161.08 604.695 160.264 606.615 158.632C608.535 156.952 609.495 154.576 609.495 151.504C609.495 148.384 608.535 146.008 606.615 144.376C604.695 142.744 601.719 141.928 597.687 141.928H589.047V161.08ZM641.147 187.864C637.643 187.864 634.571 187.048 631.931 185.416C629.339 183.784 627.323 181.48 625.883 178.504C624.443 175.48 623.723 171.952 623.723 167.92C623.723 163.84 624.443 160.312 625.883 157.336C627.323 154.36 629.339 152.056 631.931 150.424C634.571 148.792 637.643 147.976 641.147 147.976C644.651 147.976 647.699 148.792 650.291 150.424C652.931 152.056 654.971 154.36 656.411 157.336C657.851 160.312 658.571 163.84 658.571 167.92C658.571 171.952 657.851 175.48 656.411 178.504C654.971 181.48 652.931 183.784 650.291 185.416C647.699 187.048 644.651 187.864 641.147 187.864ZM641.147 182.104C644.651 182.104 647.363 180.856 649.283 178.36C651.251 175.816 652.235 172.336 652.235 167.92C652.235 163.504 651.251 160.048 649.283 157.552C647.363 155.008 644.651 153.736 641.147 153.736C637.643 153.736 634.907 155.008 632.939 157.552C631.019 160.048 630.059 163.504 630.059 167.92C630.059 172.336 631.019 175.816 632.939 178.36C634.907 180.856 637.643 182.104 641.147 182.104ZM679.135 187V148.84H684.175L684.751 158.488L684.175 158.344C684.655 155.08 685.687 152.68 687.271 151.144C688.903 149.608 691.063 148.84 693.751 148.84H701.599V154.312H693.823C691.951 154.312 690.367 154.696 689.071 155.464C687.823 156.184 686.863 157.264 686.191 158.704C685.519 160.096 685.183 161.848 685.183 163.96V187H679.135ZM669.199 187V181.672H697.279V187H669.199ZM669.199 154.168V148.84H682.447V154.168H669.199ZM733.107 187C729.411 187 726.651 186.136 724.827 184.408C723.003 182.68 722.091 180.04 722.091 176.488V139.912H728.139V176.488C728.139 178.264 728.547 179.584 729.363 180.448C730.179 181.264 731.427 181.672 733.107 181.672H743.331V187H733.107ZM709.491 154.168V148.84H743.331V154.168H709.491ZM765.623 187.864C763.223 187.864 761.063 187.432 759.143 186.568C757.223 185.704 755.711 184.504 754.607 182.968C753.503 181.384 752.951 179.56 752.951 177.496C752.951 174.232 753.911 171.712 755.831 169.936C757.799 168.112 760.871 166.792 765.047 165.976L777.863 163.384C777.863 160.12 777.119 157.696 775.631 156.112C774.191 154.528 772.103 153.736 769.367 153.736C766.727 153.736 764.663 154.336 763.175 155.536C761.687 156.688 760.655 158.368 760.079 160.576L753.671 160.072C754.391 156.472 756.095 153.568 758.783 151.36C761.519 149.104 765.047 147.976 769.367 147.976C773.975 147.976 777.551 149.368 780.095 152.152C782.639 154.888 783.911 158.68 783.911 163.528V179.368C783.911 180.232 784.103 180.832 784.487 181.168C784.871 181.504 785.447 181.672 786.215 181.672H788.663V187C788.375 187.048 787.919 187.072 787.295 187.072C786.671 187.12 786.071 187.144 785.495 187.144C783.863 187.144 782.471 186.88 781.319 186.352C780.215 185.824 779.375 184.984 778.799 183.832C778.223 182.632 777.911 181.096 777.863 179.224H779.015C778.679 180.856 777.863 182.344 776.567 183.688C775.319 184.984 773.735 186.016 771.815 186.784C769.895 187.504 767.831 187.864 765.623 187.864ZM766.199 182.536C768.791 182.536 770.951 182.104 772.679 181.24C774.407 180.328 775.703 179.08 776.567 177.496C777.431 175.864 777.863 173.992 777.863 171.88V168.568L766.199 170.872C763.607 171.352 761.807 172.096 760.799 173.104C759.791 174.064 759.287 175.336 759.287 176.92C759.287 178.696 759.887 180.088 761.087 181.096C762.335 182.056 764.039 182.536 766.199 182.536ZM811.89 187V146.104C811.89 144.568 811.458 143.368 810.594 142.504C809.73 141.64 808.53 141.208 806.994 141.208H797.994V135.88H807.282C810.786 135.88 813.426 136.792 815.202 138.616C817.026 140.392 817.938 143.032 817.938 146.536V187H811.89ZM796.554 187V181.672H831.114V187H796.554Z" fill="#09041B"/>
<path d="M231 59.5901C231 34.8612 249.29 17 273.59 17C297.89 17 316.242 34.8612 316.242 59.5901C316.242 84.3191 298.074 101.944 273.59 101.944C249.106 101.944 231 84.503 231 59.5901ZM273.59 89.8465C291.267 89.8465 302.874 77.6353 302.874 59.4675C302.874 41.2997 291.267 29.0885 273.59 29.0885C255.913 29.0885 244.367 41.7289 244.367 59.4675C244.367 77.2061 256.158 89.8465 273.59 89.8465Z" fill="#09041B"/>
<path d="M327.769 18.209H342.898L371.393 76.9084L399.95 18.209H415.017V100.726H402.131V41.6064L375.94 94.8923H366.829L340.638 41.6064V100.726H327.752V18.209H327.769Z" fill="#09041B"/>
<path d="M431.696 100.717V18.2002H444.459L494.705 81.0868V18.2002H507.468V100.717H494.582L444.459 38.4353V100.717H431.696Z" fill="#09041B"/>
<path d="M536.813 100.717H524.05V18.2002H536.813V100.717Z" fill="#09041B"/>
<path d="M553.422 100.717V18.2002H566.185L616.431 81.0868V18.2002H629.194V100.717H616.308L566.185 38.4353V100.717H553.422Z" fill="#09041B"/>
<path d="M640.661 59.5901C640.661 34.8612 658.951 17 683.251 17C707.55 17 725.902 34.8612 725.902 59.5901C725.902 84.3191 707.734 101.944 683.251 101.944C658.767 101.944 640.661 84.503 640.661 59.5901ZM683.26 89.8465C700.937 89.8465 712.544 77.6353 712.544 59.4675C712.544 41.2997 700.937 29.0885 683.26 29.0885C665.582 29.0885 654.037 41.7289 654.037 59.4675C654.037 77.2061 665.828 89.8465 683.26 89.8465Z" fill="#09041B"/>
<path d="M770.612 18.2705C795.096 18.2705 813.027 35.8952 813.027 59.5292C813.027 83.1631 795.105 100.726 770.612 100.726H737.439V18.2705H770.612ZM770.428 89.1811C787.992 89.1811 799.651 76.2429 799.651 59.5292C799.651 42.8155 787.983 29.6933 770.428 29.6933H750.193V89.1811H770.428Z" fill="#09041B"/>
<path d="M824.529 18.209H882.37V29.8157H837.283V52.5386H875.984V64.1454H837.283V89.1196H883.64V100.726H824.52V18.209H824.529Z" fill="#09041B"/>
    <path d="M42.38 119.537V102.507C42.38 101.557 41.87 100.677 41.05 100.197L18.36 87.0874C17.45 86.5674 16.32 87.2174 16.32 88.2674V134.577C16.32 135.527 16.83 136.407 17.65 136.887L74.75 169.867C75.58 170.347 76.08 171.227 76.08 172.177V187.097C76.08 188.147 74.95 188.797 74.04 188.277L1.33 146.327C0.500002 145.847 0 144.967 0 144.017V60.0074C0 58.9574 1.13 58.3074 2.04 58.8274L16.31 67.0574L42.38 82.1174L57.35 90.7474C58.18 91.2274 58.69 92.1074 58.69 93.0574V110.117C58.69 111.067 59.2 111.957 60.03 112.427L74.76 120.917C75.59 121.397 76.1 122.277 76.1 123.227V138.167C76.1 139.217 74.97 139.867 74.06 139.347L43.73 121.857C42.9 121.377 42.39 120.497 42.39 119.547L42.38 119.537Z" fill="#4340dd"/>
    <path d="M168.53 49.7975V143.967C168.53 144.937 168.01 145.837 167.17 146.317L108.7 180.057L100.55 184.757L94.43 188.288C93.52 188.808 92.39 188.157 92.39 187.107V123.267C92.39 122.297 92.91 121.398 93.75 120.918L100.54 116.998L108.45 112.427C109.29 111.937 109.81 111.047 109.81 110.077V83.6975C109.81 82.7275 109.29 81.8275 108.45 81.3475L85.62 68.1575C84.78 67.6675 83.74 67.6675 82.9 68.1575L68.22 76.6175C67.38 77.1075 66.34 77.0975 65.5 76.6175L52.59 69.1475C51.68 68.6275 51.69 67.3175 52.59 66.7975L82.9 49.3175C83.74 48.8375 84.78 48.8375 85.62 49.3175L124.76 71.9175C125.6 72.4075 126.12 73.2975 126.12 74.2675V119.507C126.12 120.477 125.6 121.378 124.76 121.858L110.06 130.347C109.22 130.837 108.7 131.727 108.7 132.697V158.887C108.7 159.937 109.83 160.588 110.74 160.068L150.86 136.887C151.7 136.397 152.22 135.507 152.22 134.537V59.2275C152.22 58.2575 151.7 57.3575 150.86 56.8775L85.62 19.1975C84.78 18.7075 83.74 18.7075 82.9 19.1975L25.85 52.1475C25.01 52.6375 23.97 52.6375 23.13 52.1475L10.22 44.6775C9.31001 44.1575 9.32001 42.8475 10.22 42.3275L82.91 0.3675C83.75 -0.1225 84.79 -0.1225 85.63 0.3675L167.18 47.4575C168.02 47.9475 168.54 48.8375 168.54 49.8075L168.53 49.7975Z" fill="#09041B"/>
</svg>
