<svg width="512" height="512" viewBox="0 0 512 512" fill="none" xmlns="http://www.w3.org/2000/svg">
<rect width="512" height="512" rx="100" fill="#1B61ED"/>
<path fill-rule="evenodd" clip-rule="evenodd" d="M275.87 119.693C278.973 120.668 281.684 122.607 283.608 125.229C285.532 127.85 286.57 131.017 286.57 134.268V210.657H347.708C350.504 210.656 353.247 211.421 355.638 212.869C358.029 214.318 359.977 216.394 361.269 218.872C362.561 221.35 363.149 224.135 362.968 226.924C362.787 229.713 361.844 232.398 360.242 234.689L253.249 387.467C251.387 390.133 248.722 392.136 245.642 393.185C242.562 394.233 239.228 394.271 236.125 393.295C233.022 392.318 230.311 390.377 228.388 387.755C226.465 385.132 225.428 381.964 225.431 378.712V302.323H164.292C161.496 302.325 158.753 301.559 156.362 300.111C153.971 298.662 152.023 296.586 150.731 294.108C149.439 291.63 148.851 288.845 149.032 286.056C149.213 283.268 150.156 280.582 151.758 278.292L258.751 125.514C260.616 122.852 263.281 120.854 266.36 119.81C269.439 118.766 272.77 118.73 275.87 119.708V119.693Z" fill="white"/>
</svg>
