<svg viewBox="0 0 169 189" fill="none" xmlns="http://www.w3.org/2000/svg">
<path d="M42.38 119.537V102.507C42.38 101.557 41.87 100.677 41.05 100.197L18.36 87.0874C17.45 86.5674 16.32 87.2174 16.32 88.2674V134.577C16.32 135.527 16.83 136.407 17.65 136.887L74.75 169.867C75.58 170.347 76.08 171.227 76.08 172.177V187.097C76.08 188.147 74.95 188.797 74.04 188.277L1.33 146.327C0.500002 145.847 0 144.967 0 144.017V60.0074C0 58.9574 1.13 58.3074 2.04 58.8274L16.31 67.0574L42.38 82.1174L57.35 90.7474C58.18 91.2274 58.69 92.1074 58.69 93.0574V110.117C58.69 111.067 59.2 111.957 60.03 112.427L74.76 120.917C75.59 121.397 76.1 122.277 76.1 123.227V138.167C76.1 139.217 74.97 139.867 74.06 139.347L43.73 121.857C42.9 121.377 42.39 120.497 42.39 119.547L42.38 119.537Z" fill="#4340DD"/>
<path d="M168.53 49.7975V143.967C168.53 144.937 168.01 145.837 167.17 146.317L108.7 180.057L100.55 184.757L94.43 188.288C93.52 188.808 92.39 188.157 92.39 187.107V123.267C92.39 122.297 92.91 121.398 93.75 120.918L100.54 116.998L108.45 112.427C109.29 111.937 109.81 111.047 109.81 110.077V83.6975C109.81 82.7275 109.29 81.8275 108.45 81.3475L85.62 68.1575C84.78 67.6675 83.74 67.6675 82.9 68.1575L68.22 76.6175C67.38 77.1075 66.34 77.0975 65.5 76.6175L52.59 69.1475C51.68 68.6275 51.69 67.3175 52.59 66.7975L82.9 49.3175C83.74 48.8375 84.78 48.8375 85.62 49.3175L124.76 71.9175C125.6 72.4075 126.12 73.2975 126.12 74.2675V119.507C126.12 120.477 125.6 121.378 124.76 121.858L110.06 130.347C109.22 130.837 108.7 131.727 108.7 132.697V158.887C108.7 159.937 109.83 160.588 110.74 160.068L150.86 136.887C151.7 136.397 152.22 135.507 152.22 134.537V59.2275C152.22 58.2575 151.7 57.3575 150.86 56.8775L85.62 19.1975C84.78 18.7075 83.74 18.7075 82.9 19.1975L25.85 52.1475C25.01 52.6375 23.97 52.6375 23.13 52.1475L10.22 44.6775C9.31001 44.1575 9.32001 42.8475 10.22 42.3275L82.91 0.3675C83.75 -0.1225 84.79 -0.1225 85.63 0.3675L167.18 47.4575C168.02 47.9475 168.54 48.8375 168.54 49.8075L168.53 49.7975Z" fill="#4340DD"/>
</svg>