<svg viewBox="0 0 189 189" fill="none" xmlns="http://www.w3.org/2000/svg">
<rect width="188.47" height="188.47" rx="40" fill="#0708DB"/>
<path d="M60.1977 114.459V100.717C60.1977 99.95 59.7862 99.2399 59.1245 98.8525L40.8152 88.2737C40.0809 87.8541 39.1691 88.3786 39.1691 89.2259V126.595C39.1691 127.361 39.5806 128.071 40.2423 128.459L86.318 155.071C86.9878 155.459 87.3912 156.169 87.3912 156.935V168.975C87.3912 169.822 86.4794 170.347 85.7451 169.927L27.0732 136.076C26.4035 135.689 26 134.979 26 134.212V66.422C26 65.5747 26.9118 65.0502 27.6461 65.4698L39.161 72.1109L60.1977 84.2632L72.2774 91.227C72.9472 91.6144 73.3587 92.3245 73.3587 93.0911V106.857C73.3587 107.624 73.7703 108.342 74.44 108.721L86.3261 115.572C86.9958 115.959 87.4074 116.67 87.4074 117.436V129.492C87.4074 130.339 86.4955 130.863 85.7612 130.444L61.2871 116.331C60.6173 115.943 60.2058 115.233 60.2058 114.467L60.1977 114.459Z" fill="white"/>
<path d="M161.992 58.1831V134.172C161.992 134.954 161.572 135.681 160.894 136.068L113.713 163.294L107.137 167.086L102.198 169.935C101.464 170.354 100.552 169.83 100.552 168.983V117.468C100.552 116.686 100.972 115.959 101.65 115.572L107.129 112.409L113.512 108.721C114.189 108.326 114.609 107.608 114.609 106.825V85.538C114.609 84.7553 114.189 84.0291 113.512 83.6417L95.0893 72.9983C94.4115 72.6029 93.5723 72.6029 92.8945 72.9983L81.0487 79.825C80.3709 80.2204 79.5317 80.2123 78.8539 79.825L68.4364 73.7972C67.7021 73.3776 67.7102 72.3205 68.4364 71.9009L92.8945 57.7958C93.5723 57.4084 94.4115 57.4084 95.0893 57.7958L126.673 76.0324C127.35 76.4278 127.77 77.1459 127.77 77.9287V114.434C127.77 115.217 127.35 115.943 126.673 116.33L114.811 123.181C114.133 123.577 113.713 124.295 113.713 125.078V146.211C113.713 147.058 114.625 147.583 115.359 147.163L147.733 128.459C148.411 128.063 148.831 127.345 148.831 126.562V65.7924C148.831 65.0097 148.411 64.2835 147.733 63.8962L95.0893 33.491C94.4115 33.0956 93.5723 33.0956 92.8945 33.491L46.8591 60.0794C46.1813 60.4748 45.3421 60.4748 44.6643 60.0794L34.2468 54.0516C33.5125 53.632 33.5206 52.5749 34.2468 52.1553L92.9025 18.2965C93.5804 17.9012 94.4196 17.9012 95.0974 18.2965L160.903 56.2949C161.58 56.6903 162 57.4084 162 58.1912L161.992 58.1831Z" fill="white"/>
</svg>

