<svg viewBox="0 0 200 200" xmlns="http://www.w3.org/2000/svg">
    <g>
        <path d="M21.5779 45.9539L100.911 0.336449L189.503 50.5835L189.503 153.059L109.51 200L109.51 128.859L128.5 118L128.5 87.5L100.914 71.0774L82.4019 80.9945L66.5345 71.7385L100.914 51.9042L144.549 77.5L144.549 127.275L126.698 137.853L126.698 171L172.314 142.482L172.314 61.1616L100.911 19.5096L38.1023 55.2119L21.5779 45.9539Z" fill="#0F361D"/>
        <path d="M29.2904 91.6981V143.208L92.0001 179.528V200L11.6533 153.113L12 60.5L73.7098 96.9811V116.132L92.0001 128.679V149.151L55.4194 127.358V106.226L29.2904 91.6981Z" fill="#13D064"/>
    </g>
</svg>