<svg viewBox="0 0 884 208" fill="none" xmlns="http://www.w3.org/2000/svg">
<path d="M232.872 187L248.424 135.88H256.776L272.328 187H265.704L252.6 141.496L239.496 187H232.872ZM240.72 172.456L242.88 166.408H262.32L264.48 172.456H240.72ZM293.396 187.864C290.036 187.864 287.132 187.048 284.684 185.416C282.236 183.784 280.34 181.48 278.996 178.504C277.7 175.528 277.052 172 277.052 167.92C277.052 163.84 277.7 160.312 278.996 157.336C280.34 154.36 282.236 152.056 284.684 150.424C287.132 148.792 290.036 147.976 293.396 147.976C296.084 147.976 298.436 148.624 300.452 149.92C302.468 151.168 303.932 152.584 304.844 154.168V135.88H310.892V187H305.42L305.204 181.24C304.148 183.304 302.588 184.936 300.524 186.136C298.46 187.288 296.084 187.864 293.396 187.864ZM293.756 182.104C296.06 182.104 298.028 181.528 299.66 180.376C301.34 179.224 302.612 177.592 303.476 175.48C304.388 173.32 304.844 170.8 304.844 167.92C304.844 164.944 304.388 162.4 303.476 160.288C302.612 158.176 301.34 156.568 299.66 155.464C297.98 154.312 295.964 153.736 293.612 153.736C290.492 153.736 287.996 155.008 286.124 157.552C284.3 160.048 283.388 163.504 283.388 167.92C283.388 172.288 284.3 175.744 286.124 178.288C287.996 180.832 290.54 182.104 293.756 182.104ZM320.224 187V148.84H325.768L325.984 157.336L325.264 157.192C325.696 154.36 326.608 152.128 328 150.496C329.44 148.816 331.264 147.976 333.472 147.976C335.728 147.976 337.456 148.792 338.656 150.424C339.904 152.056 340.672 154.456 340.96 157.624H340.24C340.672 154.648 341.632 152.296 343.12 150.568C344.656 148.84 346.576 147.976 348.88 147.976C351.952 147.976 354.184 149.032 355.576 151.144C356.968 153.256 357.664 156.76 357.664 161.656V187H351.616V162.52C351.616 159.112 351.256 156.736 350.536 155.392C349.816 154 348.688 153.304 347.152 153.304C346.144 153.304 345.256 153.64 344.488 154.312C343.72 154.936 343.096 155.944 342.616 157.336C342.184 158.728 341.968 160.504 341.968 162.664V187H335.92V162.52C335.92 159.256 335.56 156.904 334.84 155.464C334.168 154.024 333.04 153.304 331.456 153.304C330.448 153.304 329.56 153.64 328.792 154.312C328.024 154.936 327.4 155.944 326.92 157.336C326.488 158.728 326.272 160.504 326.272 162.664V187H320.224ZM381.612 187V148.84H387.66V187H381.612ZM366.276 187V181.672H400.836V187H366.276ZM366.996 154.168V148.84H387.66V154.168H366.996ZM381.036 142.864V135.808H387.372V142.864H381.036ZM409.736 187V148.84H415.28L415.496 158.56L414.776 157.912C415.256 155.656 416.12 153.808 417.368 152.368C418.664 150.88 420.2 149.776 421.976 149.056C423.752 148.336 425.624 147.976 427.592 147.976C430.52 147.976 432.944 148.624 434.864 149.92C436.832 151.216 438.32 152.968 439.328 155.176C440.336 157.336 440.84 159.76 440.84 162.448V187H434.792V164.176C434.792 160.624 434.096 157.936 432.704 156.112C431.312 154.24 429.176 153.304 426.296 153.304C424.328 153.304 422.552 153.736 420.968 154.6C419.384 155.416 418.112 156.64 417.152 158.272C416.24 159.856 415.784 161.824 415.784 164.176V187H409.736ZM511.775 188.152C507.695 188.152 504.239 187.072 501.407 184.912C498.575 182.752 496.415 179.68 494.927 175.696C493.487 171.712 492.767 166.984 492.767 161.512C492.767 155.992 493.487 151.24 494.927 147.256C496.415 143.272 498.575 140.2 501.407 138.04C504.239 135.832 507.695 134.728 511.775 134.728C516.287 134.728 520.127 136.216 523.295 139.192C526.463 142.12 528.575 146.224 529.631 151.504L523.007 151.936C522.191 148.24 520.775 145.456 518.759 143.584C516.791 141.712 514.463 140.776 511.775 140.776C509.039 140.776 506.735 141.592 504.863 143.224C503.039 144.808 501.647 147.16 500.687 150.28C499.727 153.352 499.247 157.096 499.247 161.512C499.247 165.88 499.727 169.6 500.687 172.672C501.647 175.744 503.039 178.096 504.863 179.728C506.735 181.312 509.039 182.104 511.775 182.104C514.751 182.104 517.271 181.072 519.335 179.008C521.399 176.944 522.791 173.872 523.511 169.792L530.063 170.152C529.151 175.768 527.087 180.184 523.871 183.4C520.655 186.568 516.623 188.152 511.775 188.152ZM554.803 187.864C551.299 187.864 548.227 187.048 545.587 185.416C542.995 183.784 540.979 181.48 539.539 178.504C538.099 175.48 537.379 171.952 537.379 167.92C537.379 163.84 538.099 160.312 539.539 157.336C540.979 154.36 542.995 152.056 545.587 150.424C548.227 148.792 551.299 147.976 554.803 147.976C558.307 147.976 561.355 148.792 563.947 150.424C566.587 152.056 568.627 154.36 570.067 157.336C571.507 160.312 572.227 163.84 572.227 167.92C572.227 171.952 571.507 175.48 570.067 178.504C568.627 181.48 566.587 183.784 563.947 185.416C561.355 187.048 558.307 187.864 554.803 187.864ZM554.803 182.104C558.307 182.104 561.019 180.856 562.939 178.36C564.907 175.816 565.891 172.336 565.891 167.92C565.891 163.504 564.907 160.048 562.939 157.552C561.019 155.008 558.307 153.736 554.803 153.736C551.299 153.736 548.563 155.008 546.595 157.552C544.675 160.048 543.715 163.504 543.715 167.92C543.715 172.336 544.675 175.816 546.595 178.36C548.563 180.856 551.299 182.104 554.803 182.104ZM582.423 187V148.84H587.967L588.183 158.56L587.463 157.912C587.943 155.656 588.807 153.808 590.055 152.368C591.351 150.88 592.887 149.776 594.663 149.056C596.439 148.336 598.311 147.976 600.279 147.976C603.207 147.976 605.631 148.624 607.551 149.92C609.519 151.216 611.007 152.968 612.015 155.176C613.023 157.336 613.527 159.76 613.527 162.448V187H607.479V164.176C607.479 160.624 606.783 157.936 605.391 156.112C603.999 154.24 601.863 153.304 598.983 153.304C597.015 153.304 595.239 153.736 593.655 154.6C592.071 155.416 590.799 156.64 589.839 158.272C588.927 159.856 588.471 161.824 588.471 164.176V187H582.423ZM641.867 187.864C638.555 187.864 635.699 187.288 633.299 186.136C630.899 184.984 629.003 183.448 627.611 181.528C626.267 179.56 625.499 177.376 625.307 174.976L631.643 174.544C632.027 176.896 633.059 178.744 634.739 180.088C636.467 181.432 638.843 182.104 641.867 182.104C644.699 182.104 646.883 181.696 648.419 180.88C650.003 180.064 650.795 178.792 650.795 177.064C650.795 175.96 650.531 175.048 650.003 174.328C649.475 173.608 648.491 173.008 647.051 172.528C645.611 172 643.499 171.496 640.715 171.016C637.019 170.344 634.115 169.528 632.003 168.568C629.939 167.56 628.475 166.312 627.611 164.824C626.747 163.336 626.315 161.56 626.315 159.496C626.315 157.288 626.867 155.32 627.971 153.592C629.075 151.864 630.707 150.496 632.867 149.488C635.027 148.48 637.667 147.976 640.787 147.976C643.955 147.976 646.595 148.552 648.707 149.704C650.867 150.808 652.571 152.296 653.819 154.168C655.067 155.992 655.883 158.008 656.267 160.216L649.931 160.648C649.643 159.304 649.091 158.128 648.275 157.12C647.507 156.064 646.475 155.248 645.179 154.672C643.931 154.048 642.443 153.736 640.715 153.736C637.931 153.736 635.867 154.288 634.523 155.392C633.179 156.496 632.507 157.864 632.507 159.496C632.507 160.792 632.819 161.824 633.443 162.592C634.067 163.36 635.075 163.984 636.467 164.464C637.859 164.896 639.707 165.304 642.011 165.688C645.947 166.312 648.995 167.128 651.155 168.136C653.315 169.096 654.827 170.296 655.691 171.736C656.555 173.176 656.987 174.952 656.987 177.064C656.987 179.32 656.315 181.264 654.971 182.896C653.675 184.48 651.875 185.704 649.571 186.568C647.315 187.432 644.747 187.864 641.867 187.864ZM684.319 187.864C680.815 187.864 677.743 187.048 675.103 185.416C672.511 183.784 670.495 181.48 669.055 178.504C667.615 175.48 666.895 171.952 666.895 167.92C666.895 163.84 667.615 160.312 669.055 157.336C670.495 154.36 672.511 152.056 675.103 150.424C677.743 148.792 680.815 147.976 684.319 147.976C687.823 147.976 690.871 148.792 693.463 150.424C696.103 152.056 698.143 154.36 699.583 157.336C701.023 160.312 701.743 163.84 701.743 167.92C701.743 171.952 701.023 175.48 699.583 178.504C698.143 181.48 696.103 183.784 693.463 185.416C690.871 187.048 687.823 187.864 684.319 187.864ZM684.319 182.104C687.823 182.104 690.535 180.856 692.455 178.36C694.423 175.816 695.407 172.336 695.407 167.92C695.407 163.504 694.423 160.048 692.455 157.552C690.535 155.008 687.823 153.736 684.319 153.736C680.815 153.736 678.079 155.008 676.111 157.552C674.191 160.048 673.231 163.504 673.231 167.92C673.231 172.336 674.191 175.816 676.111 178.36C678.079 180.856 680.815 182.104 684.319 182.104ZM725.547 187V146.104C725.547 144.568 725.115 143.368 724.251 142.504C723.387 141.64 722.187 141.208 720.651 141.208H711.651V135.88H720.939C724.443 135.88 727.083 136.792 728.859 138.616C730.683 140.392 731.595 143.032 731.595 146.536V187H725.547ZM710.211 187V181.672H744.771V187H710.211ZM771.311 187.864C767.711 187.864 764.591 187.048 761.951 185.416C759.359 183.784 757.343 181.48 755.903 178.504C754.511 175.48 753.814 171.952 753.814 167.92C753.814 163.888 754.511 160.384 755.903 157.408C757.343 154.432 759.335 152.128 761.879 150.496C764.471 148.816 767.519 147.976 771.023 147.976C774.335 147.976 777.263 148.768 779.807 150.352C782.351 151.888 784.343 154.144 785.783 157.12C787.223 160.096 787.943 163.72 787.943 167.992V169.792H760.151C760.391 173.872 761.471 176.944 763.391 179.008C765.359 181.072 767.999 182.104 771.311 182.104C773.807 182.104 775.847 181.528 777.431 180.376C779.063 179.176 780.191 177.616 780.815 175.696L787.295 176.2C786.287 179.608 784.367 182.416 781.535 184.624C778.751 186.784 775.343 187.864 771.311 187.864ZM760.151 164.464H781.319C781.031 160.768 779.951 158.056 778.079 156.328C776.207 154.6 773.855 153.736 771.023 153.736C768.095 153.736 765.671 154.648 763.751 156.472C761.879 158.248 760.679 160.912 760.151 164.464Z" fill="white"/>
<path d="M231 59.5901C231 34.8612 249.29 17 273.59 17C297.89 17 316.242 34.8612 316.242 59.5901C316.242 84.3191 298.074 101.944 273.59 101.944C249.106 101.944 231 84.503 231 59.5901ZM273.59 89.8465C291.267 89.8465 302.874 77.6353 302.874 59.4675C302.874 41.2997 291.267 29.0885 273.59 29.0885C255.913 29.0885 244.367 41.7289 244.367 59.4675C244.367 77.2061 256.158 89.8465 273.59 89.8465Z" fill="white"/>
<path d="M327.769 18.209H342.898L371.393 76.9084L399.95 18.209H415.017V100.726H402.131V41.6064L375.94 94.8923H366.829L340.638 41.6064V100.726H327.752V18.209H327.769Z" fill="white"/>
<path d="M431.696 100.717V18.2002H444.459L494.705 81.0868V18.2002H507.468V100.717H494.582L444.459 38.4353V100.717H431.696Z" fill="white"/>
<path d="M536.813 100.717H524.05V18.2002H536.813V100.717Z" fill="white"/>
<path d="M553.422 100.717V18.2002H566.185L616.431 81.0868V18.2002H629.194V100.717H616.308L566.185 38.4353V100.717H553.422Z" fill="white"/>
<path d="M640.661 59.5901C640.661 34.8612 658.951 17 683.251 17C707.55 17 725.902 34.8612 725.902 59.5901C725.902 84.3191 707.734 101.944 683.251 101.944C658.767 101.944 640.661 84.503 640.661 59.5901ZM683.26 89.8465C700.937 89.8465 712.544 77.6353 712.544 59.4675C712.544 41.2997 700.937 29.0885 683.26 29.0885C665.582 29.0885 654.037 41.7289 654.037 59.4675C654.037 77.2061 665.828 89.8465 683.26 89.8465Z" fill="white"/>
<path d="M770.612 18.2705C795.096 18.2705 813.027 35.8952 813.027 59.5292C813.027 83.1631 795.105 100.726 770.612 100.726H737.439V18.2705H770.612ZM770.428 89.1811C787.992 89.1811 799.651 76.2429 799.651 59.5292C799.651 42.8155 787.983 29.6933 770.428 29.6933H750.193V89.1811H770.428Z" fill="white"/>
<path d="M824.529 18.209H882.37V29.8157H837.283V52.5386H875.984V64.1454H837.283V89.1196H883.64V100.726H824.52V18.209H824.529Z" fill="white"/>
<path d="M42.38 119.537V102.507C42.38 101.557 41.87 100.677 41.05 100.197L18.36 87.0874C17.45 86.5674 16.32 87.2174 16.32 88.2674V134.577C16.32 135.527 16.83 136.407 17.65 136.887L74.75 169.867C75.58 170.347 76.08 171.227 76.08 172.177V187.097C76.08 188.147 74.95 188.797 74.04 188.277L1.33 146.327C0.500002 145.847 0 144.967 0 144.017V60.0074C0 58.9574 1.13 58.3074 2.04 58.8274L16.31 67.0574L42.38 82.1174L57.35 90.7474C58.18 91.2274 58.69 92.1074 58.69 93.0574V110.117C58.69 111.067 59.2 111.957 60.03 112.427L74.76 120.917C75.59 121.397 76.1 122.277 76.1 123.227V138.167C76.1 139.217 74.97 139.867 74.06 139.347L43.73 121.857C42.9 121.377 42.39 120.497 42.39 119.547L42.38 119.537Z" fill="#4340dd"/>
<path d="M168.53 49.7975V143.967C168.53 144.937 168.01 145.837 167.17 146.317L108.7 180.057L100.55 184.757L94.43 188.288C93.52 188.808 92.39 188.157 92.39 187.107V123.267C92.39 122.297 92.91 121.398 93.75 120.918L100.54 116.998L108.45 112.427C109.29 111.937 109.81 111.047 109.81 110.077V83.6975C109.81 82.7275 109.29 81.8275 108.45 81.3475L85.62 68.1575C84.78 67.6675 83.74 67.6675 82.9 68.1575L68.22 76.6175C67.38 77.1075 66.34 77.0975 65.5 76.6175L52.59 69.1475C51.68 68.6275 51.69 67.3175 52.59 66.7975L82.9 49.3175C83.74 48.8375 84.78 48.8375 85.62 49.3175L124.76 71.9175C125.6 72.4075 126.12 73.2975 126.12 74.2675V119.507C126.12 120.477 125.6 121.378 124.76 121.858L110.06 130.347C109.22 130.837 108.7 131.727 108.7 132.697V158.887C108.7 159.937 109.83 160.588 110.74 160.068L150.86 136.887C151.7 136.397 152.22 135.507 152.22 134.537V59.2275C152.22 58.2575 151.7 57.3575 150.86 56.8775L85.62 19.1975C84.78 18.7075 83.74 18.7075 82.9 19.1975L25.85 52.1475C25.01 52.6375 23.97 52.6375 23.13 52.1475L10.22 44.6775C9.31001 44.1575 9.32001 42.8475 10.22 42.3275L82.91 0.3675C83.75 -0.1225 84.79 -0.1225 85.63 0.3675L167.18 47.4575C168.02 47.9475 168.54 48.8375 168.54 49.8075L168.53 49.7975Z" fill="white"/>
</svg>
