<svg xmlns="http://www.w3.org/2000/svg" id="logosandtypes_com" data-name="logosandtypes com"
    viewBox="0 0 150 150">
    <script xmlns="" src="chrome-extension://mfidniedemcgceagapgdekdbmanojomk/js/elephant.js" />
    <defs>
        <style>
            .cls-1 {
            fill: none;
            }
            .cls-2 {
            fill: #12da9d;
            }
        </style>
    </defs>
    <path class="cls-1" d="M0,0H150V150H0V0Z" />
    <g>
        <path class="cls-2"
            d="M44.89,32.82l-9.81,64.58c-.36,11.47-16.99,11.46-17.34,0h0L8.15,32.82c-1.68-5.73,2.72-11.72,8.67-11.87h19.4c5.97,.14,10.34,6.15,8.67,11.87Z" />
        <path class="cls-2"
            d="M141.88,32.82l-9.58,64.58c-1.6,10.04-16.2,9.81-17.34,0l-9.81-64.58c-1.68-5.73,2.72-11.72,8.67-11.87h19.4c5.97,.14,10.34,6.15,8.67,11.87Z" />
        <path class="cls-2"
            d="M56.53,122.28l9.81-64.81c1.6-9.81,16.2-9.58,17.34,0l9.81,64.81c1.32,5.72-3.04,11.41-8.9,11.64h-19.17c-5.87-.22-10.21-5.92-8.9-11.64Z" />
    </g>
</svg>