<svg viewBox="0 0 1009 208" fill="none" xmlns="http://www.w3.org/2000/svg">
<path d="M249.864 181.24L240.216 141.64H240.792V187H234.6V135.88H243.96L254.04 177.928H251.16L261.24 135.88H270.6V187H264.408V141.64H264.984L255.336 181.24H249.864ZM290.732 187.864C288.332 187.864 286.172 187.432 284.252 186.568C282.332 185.704 280.82 184.504 279.716 182.968C278.612 181.384 278.06 179.56 278.06 177.496C278.06 174.232 279.02 171.712 280.94 169.936C282.908 168.112 285.98 166.792 290.156 165.976L302.972 163.384C302.972 160.12 302.228 157.696 300.74 156.112C299.3 154.528 297.212 153.736 294.476 153.736C291.836 153.736 289.772 154.336 288.284 155.536C286.796 156.688 285.764 158.368 285.188 160.576L278.78 160.072C279.5 156.472 281.204 153.568 283.892 151.36C286.628 149.104 290.156 147.976 294.476 147.976C299.084 147.976 302.66 149.368 305.204 152.152C307.748 154.888 309.02 158.68 309.02 163.528V179.368C309.02 180.232 309.212 180.832 309.596 181.168C309.98 181.504 310.556 181.672 311.324 181.672H313.772V187C313.484 187.048 313.028 187.072 312.404 187.072C311.78 187.12 311.18 187.144 310.604 187.144C308.972 187.144 307.58 186.88 306.428 186.352C305.324 185.824 304.484 184.984 303.908 183.832C303.332 182.632 303.02 181.096 302.972 179.224H304.124C303.788 180.856 302.972 182.344 301.676 183.688C300.428 184.984 298.844 186.016 296.924 186.784C295.004 187.504 292.94 187.864 290.732 187.864ZM291.308 182.536C293.9 182.536 296.06 182.104 297.788 181.24C299.516 180.328 300.812 179.08 301.676 177.496C302.54 175.864 302.972 173.992 302.972 171.88V168.568L291.308 170.872C288.716 171.352 286.916 172.096 285.908 173.104C284.9 174.064 284.396 175.336 284.396 176.92C284.396 178.696 284.996 180.088 286.196 181.096C287.444 182.056 289.148 182.536 291.308 182.536ZM323.392 187V148.84H328.936L329.152 158.56L328.432 157.912C328.912 155.656 329.776 153.808 331.024 152.368C332.32 150.88 333.856 149.776 335.632 149.056C337.408 148.336 339.28 147.976 341.248 147.976C344.176 147.976 346.6 148.624 348.52 149.92C350.488 151.216 351.976 152.968 352.984 155.176C353.992 157.336 354.496 159.76 354.496 162.448V187H348.448V164.176C348.448 160.624 347.752 157.936 346.36 156.112C344.968 154.24 342.832 153.304 339.952 153.304C337.984 153.304 336.208 153.736 334.624 154.6C333.04 155.416 331.768 156.64 330.808 158.272C329.896 159.856 329.44 161.824 329.44 164.176V187H323.392ZM377.076 187.864C374.676 187.864 372.516 187.432 370.596 186.568C368.676 185.704 367.164 184.504 366.06 182.968C364.956 181.384 364.404 179.56 364.404 177.496C364.404 174.232 365.364 171.712 367.284 169.936C369.252 168.112 372.324 166.792 376.5 165.976L389.316 163.384C389.316 160.12 388.572 157.696 387.084 156.112C385.644 154.528 383.556 153.736 380.82 153.736C378.18 153.736 376.116 154.336 374.628 155.536C373.14 156.688 372.108 158.368 371.532 160.576L365.124 160.072C365.844 156.472 367.548 153.568 370.236 151.36C372.972 149.104 376.5 147.976 380.82 147.976C385.428 147.976 389.004 149.368 391.548 152.152C394.092 154.888 395.364 158.68 395.364 163.528V179.368C395.364 180.232 395.556 180.832 395.94 181.168C396.324 181.504 396.9 181.672 397.668 181.672H400.116V187C399.828 187.048 399.372 187.072 398.748 187.072C398.124 187.12 397.524 187.144 396.948 187.144C395.316 187.144 393.924 186.88 392.772 186.352C391.668 185.824 390.828 184.984 390.252 183.832C389.676 182.632 389.364 181.096 389.316 179.224H390.468C390.132 180.856 389.316 182.344 388.02 183.688C386.772 184.984 385.188 186.016 383.268 186.784C381.348 187.504 379.284 187.864 377.076 187.864ZM377.652 182.536C380.244 182.536 382.404 182.104 384.132 181.24C385.86 180.328 387.156 179.08 388.02 177.496C388.884 175.864 389.316 173.992 389.316 171.88V168.568L377.652 170.872C375.06 171.352 373.26 172.096 372.252 173.104C371.244 174.064 370.74 175.336 370.74 176.92C370.74 178.696 371.34 180.088 372.54 181.096C373.788 182.056 375.492 182.536 377.652 182.536ZM425.072 198.664C422.336 198.664 419.864 198.208 417.656 197.296C415.448 196.384 413.6 195.088 412.112 193.408C410.624 191.728 409.616 189.784 409.088 187.576L415.424 187.144C416 188.92 417.008 190.312 418.448 191.32C419.936 192.376 422.144 192.904 425.072 192.904C428.528 192.904 431.168 192.208 432.992 190.816C434.864 189.424 435.8 187.336 435.8 184.552V178.36C434.888 180.376 433.424 181.984 431.408 183.184C429.392 184.384 427.136 184.984 424.64 184.984C421.424 184.984 418.544 184.192 416 182.608C413.504 181.024 411.536 178.84 410.096 176.056C408.704 173.272 408.008 170.08 408.008 166.48C408.008 162.832 408.704 159.64 410.096 156.904C411.488 154.12 413.408 151.936 415.856 150.352C418.352 148.768 421.184 147.976 424.352 147.976C427.04 147.976 429.44 148.6 431.552 149.848C433.712 151.096 435.224 152.776 436.088 154.888V148.84H441.848V184.408C441.848 187.384 441.176 189.928 439.832 192.04C438.488 194.2 436.568 195.832 434.072 196.936C431.576 198.088 428.576 198.664 425.072 198.664ZM424.928 179.224C428.192 179.224 430.808 178.096 432.776 175.84C434.744 173.536 435.752 170.416 435.8 166.48C435.848 163.84 435.416 161.584 434.504 159.712C433.64 157.792 432.368 156.328 430.688 155.32C429.056 154.264 427.136 153.736 424.928 153.736C421.568 153.736 418.952 154.888 417.08 157.192C415.256 159.448 414.344 162.544 414.344 166.48C414.344 170.416 415.28 173.536 417.152 175.84C419.072 178.096 421.664 179.224 424.928 179.224ZM469.107 187.864C465.507 187.864 462.387 187.048 459.747 185.416C457.155 183.784 455.139 181.48 453.699 178.504C452.307 175.48 451.611 171.952 451.611 167.92C451.611 163.888 452.307 160.384 453.699 157.408C455.139 154.432 457.131 152.128 459.675 150.496C462.267 148.816 465.315 147.976 468.819 147.976C472.131 147.976 475.059 148.768 477.603 150.352C480.147 151.888 482.139 154.144 483.579 157.12C485.019 160.096 485.739 163.72 485.739 167.992V169.792H457.947C458.187 173.872 459.267 176.944 461.187 179.008C463.155 181.072 465.795 182.104 469.107 182.104C471.603 182.104 473.643 181.528 475.227 180.376C476.859 179.176 477.987 177.616 478.611 175.696L485.091 176.2C484.083 179.608 482.163 182.416 479.331 184.624C476.547 186.784 473.139 187.864 469.107 187.864ZM457.947 164.464H479.115C478.827 160.768 477.747 158.056 475.875 156.328C474.003 154.6 471.651 153.736 468.819 153.736C465.891 153.736 463.467 154.648 461.547 156.472C459.675 158.248 458.475 160.912 457.947 164.464ZM492.911 187V148.84H498.455L498.671 157.336L497.951 157.192C498.383 154.36 499.295 152.128 500.687 150.496C502.127 148.816 503.951 147.976 506.159 147.976C508.415 147.976 510.143 148.792 511.343 150.424C512.591 152.056 513.359 154.456 513.647 157.624H512.927C513.359 154.648 514.319 152.296 515.807 150.568C517.343 148.84 519.263 147.976 521.567 147.976C524.639 147.976 526.871 149.032 528.263 151.144C529.655 153.256 530.351 156.76 530.351 161.656V187H524.303V162.52C524.303 159.112 523.943 156.736 523.223 155.392C522.503 154 521.375 153.304 519.839 153.304C518.831 153.304 517.943 153.64 517.175 154.312C516.407 154.936 515.783 155.944 515.303 157.336C514.871 158.728 514.655 160.504 514.655 162.664V187H508.607V162.52C508.607 159.256 508.247 156.904 507.527 155.464C506.855 154.024 505.727 153.304 504.143 153.304C503.135 153.304 502.247 153.64 501.479 154.312C500.711 154.936 500.087 155.944 499.607 157.336C499.175 158.728 498.959 160.504 498.959 162.664V187H492.911ZM555.451 187.864C551.851 187.864 548.731 187.048 546.091 185.416C543.499 183.784 541.483 181.48 540.043 178.504C538.651 175.48 537.955 171.952 537.955 167.92C537.955 163.888 538.651 160.384 540.043 157.408C541.483 154.432 543.475 152.128 546.019 150.496C548.611 148.816 551.659 147.976 555.163 147.976C558.475 147.976 561.403 148.768 563.947 150.352C566.491 151.888 568.483 154.144 569.923 157.12C571.363 160.096 572.083 163.72 572.083 167.992V169.792H544.291C544.531 173.872 545.611 176.944 547.531 179.008C549.499 181.072 552.139 182.104 555.451 182.104C557.947 182.104 559.987 181.528 561.571 180.376C563.203 179.176 564.331 177.616 564.955 175.696L571.435 176.2C570.427 179.608 568.507 182.416 565.675 184.624C562.891 186.784 559.483 187.864 555.451 187.864ZM544.291 164.464H565.459C565.171 160.768 564.091 158.056 562.219 156.328C560.347 154.6 557.995 153.736 555.163 153.736C552.235 153.736 549.811 154.648 547.891 156.472C546.019 158.248 544.819 160.912 544.291 164.464ZM582.423 187V148.84H587.967L588.183 158.56L587.463 157.912C587.943 155.656 588.807 153.808 590.055 152.368C591.351 150.88 592.887 149.776 594.663 149.056C596.439 148.336 598.311 147.976 600.279 147.976C603.207 147.976 605.631 148.624 607.551 149.92C609.519 151.216 611.007 152.968 612.015 155.176C613.023 157.336 613.527 159.76 613.527 162.448V187H607.479V164.176C607.479 160.624 606.783 157.936 605.391 156.112C603.999 154.24 601.863 153.304 598.983 153.304C597.015 153.304 595.239 153.736 593.655 154.6C592.071 155.416 590.799 156.64 589.839 158.272C588.927 159.856 588.471 161.824 588.471 164.176V187H582.423ZM646.763 187C643.067 187 640.307 186.136 638.483 184.408C636.659 182.68 635.747 180.04 635.747 176.488V139.912H641.795V176.488C641.795 178.264 642.203 179.584 643.019 180.448C643.835 181.264 645.083 181.672 646.763 181.672H656.987V187H646.763ZM623.147 154.168V148.84H656.987V154.168H623.147ZM727.635 188.152C723.555 188.152 720.099 187.072 717.267 184.912C714.435 182.752 712.275 179.68 710.787 175.696C709.347 171.712 708.627 166.984 708.627 161.512C708.627 155.992 709.347 151.24 710.787 147.256C712.275 143.272 714.435 140.2 717.267 138.04C720.099 135.832 723.555 134.728 727.635 134.728C732.147 134.728 735.987 136.216 739.155 139.192C742.323 142.12 744.435 146.224 745.491 151.504L738.867 151.936C738.051 148.24 736.635 145.456 734.619 143.584C732.651 141.712 730.323 140.776 727.635 140.776C724.899 140.776 722.595 141.592 720.723 143.224C718.899 144.808 717.507 147.16 716.547 150.28C715.587 153.352 715.107 157.096 715.107 161.512C715.107 165.88 715.587 169.6 716.547 172.672C717.507 175.744 718.899 178.096 720.723 179.728C722.595 181.312 724.899 182.104 727.635 182.104C730.611 182.104 733.131 181.072 735.195 179.008C737.259 176.944 738.651 173.872 739.371 169.792L745.923 170.152C745.011 175.768 742.947 180.184 739.731 183.4C736.515 186.568 732.483 188.152 727.635 188.152ZM770.663 187.864C767.159 187.864 764.087 187.048 761.447 185.416C758.855 183.784 756.839 181.48 755.399 178.504C753.959 175.48 753.239 171.952 753.239 167.92C753.239 163.84 753.959 160.312 755.399 157.336C756.839 154.36 758.855 152.056 761.447 150.424C764.087 148.792 767.159 147.976 770.663 147.976C774.167 147.976 777.215 148.792 779.807 150.424C782.447 152.056 784.487 154.36 785.927 157.336C787.367 160.312 788.087 163.84 788.087 167.92C788.087 171.952 787.367 175.48 785.927 178.504C784.487 181.48 782.447 183.784 779.807 185.416C777.215 187.048 774.167 187.864 770.663 187.864ZM770.663 182.104C774.167 182.104 776.879 180.856 778.799 178.36C780.767 175.816 781.751 172.336 781.751 167.92C781.751 163.504 780.767 160.048 778.799 157.552C776.879 155.008 774.167 153.736 770.663 153.736C767.159 153.736 764.423 155.008 762.455 157.552C760.535 160.048 759.575 163.504 759.575 167.92C759.575 172.336 760.535 175.816 762.455 178.36C764.423 180.856 767.159 182.104 770.663 182.104ZM798.282 187V148.84H803.826L804.042 158.56L803.322 157.912C803.802 155.656 804.666 153.808 805.914 152.368C807.21 150.88 808.746 149.776 810.522 149.056C812.298 148.336 814.17 147.976 816.138 147.976C819.066 147.976 821.49 148.624 823.41 149.92C825.378 151.216 826.866 152.968 827.874 155.176C828.882 157.336 829.386 159.76 829.386 162.448V187H823.338V164.176C823.338 160.624 822.642 157.936 821.25 156.112C819.858 154.24 817.722 153.304 814.842 153.304C812.874 153.304 811.098 153.736 809.514 154.6C807.93 155.416 806.658 156.64 805.698 158.272C804.786 159.856 804.33 161.824 804.33 164.176V187H798.282ZM857.726 187.864C854.414 187.864 851.558 187.288 849.158 186.136C846.758 184.984 844.862 183.448 843.47 181.528C842.126 179.56 841.358 177.376 841.166 174.976L847.502 174.544C847.886 176.896 848.918 178.744 850.598 180.088C852.326 181.432 854.702 182.104 857.726 182.104C860.558 182.104 862.742 181.696 864.278 180.88C865.862 180.064 866.654 178.792 866.654 177.064C866.654 175.96 866.39 175.048 865.862 174.328C865.334 173.608 864.35 173.008 862.91 172.528C861.47 172 859.358 171.496 856.574 171.016C852.878 170.344 849.974 169.528 847.862 168.568C845.798 167.56 844.334 166.312 843.47 164.824C842.606 163.336 842.174 161.56 842.174 159.496C842.174 157.288 842.726 155.32 843.83 153.592C844.934 151.864 846.566 150.496 848.726 149.488C850.886 148.48 853.526 147.976 856.646 147.976C859.814 147.976 862.454 148.552 864.566 149.704C866.726 150.808 868.43 152.296 869.678 154.168C870.926 155.992 871.742 158.008 872.126 160.216L865.79 160.648C865.502 159.304 864.95 158.128 864.134 157.12C863.366 156.064 862.334 155.248 861.038 154.672C859.79 154.048 858.302 153.736 856.574 153.736C853.79 153.736 851.726 154.288 850.382 155.392C849.038 156.496 848.366 157.864 848.366 159.496C848.366 160.792 848.678 161.824 849.302 162.592C849.926 163.36 850.934 163.984 852.326 164.464C853.718 164.896 855.566 165.304 857.87 165.688C861.806 166.312 864.854 167.128 867.014 168.136C869.174 169.096 870.686 170.296 871.55 171.736C872.414 173.176 872.846 174.952 872.846 177.064C872.846 179.32 872.174 181.264 870.83 182.896C869.534 184.48 867.734 185.704 865.43 186.568C863.174 187.432 860.606 187.864 857.726 187.864ZM900.178 187.864C896.674 187.864 893.602 187.048 890.962 185.416C888.37 183.784 886.354 181.48 884.914 178.504C883.474 175.48 882.754 171.952 882.754 167.92C882.754 163.84 883.474 160.312 884.914 157.336C886.354 154.36 888.37 152.056 890.962 150.424C893.602 148.792 896.674 147.976 900.178 147.976C903.682 147.976 906.73 148.792 909.322 150.424C911.962 152.056 914.002 154.36 915.442 157.336C916.882 160.312 917.602 163.84 917.602 167.92C917.602 171.952 916.882 175.48 915.442 178.504C914.002 181.48 911.962 183.784 909.322 185.416C906.73 187.048 903.682 187.864 900.178 187.864ZM900.178 182.104C903.682 182.104 906.394 180.856 908.314 178.36C910.282 175.816 911.266 172.336 911.266 167.92C911.266 163.504 910.282 160.048 908.314 157.552C906.394 155.008 903.682 153.736 900.178 153.736C896.674 153.736 893.938 155.008 891.97 157.552C890.05 160.048 889.09 163.504 889.09 167.92C889.09 172.336 890.05 175.816 891.97 178.36C893.938 180.856 896.674 182.104 900.178 182.104ZM941.406 187V146.104C941.406 144.568 940.974 143.368 940.11 142.504C939.246 141.64 938.046 141.208 936.51 141.208H927.51V135.88H936.798C940.302 135.88 942.942 136.792 944.718 138.616C946.542 140.392 947.454 143.032 947.454 146.536V187H941.406ZM926.07 187V181.672H960.63V187H926.07ZM987.17 187.864C983.57 187.864 980.45 187.048 977.81 185.416C975.218 183.784 973.202 181.48 971.762 178.504C970.37 175.48 969.674 171.952 969.674 167.92C969.674 163.888 970.37 160.384 971.762 157.408C973.202 154.432 975.194 152.128 977.738 150.496C980.33 148.816 983.378 147.976 986.882 147.976C990.194 147.976 993.122 148.768 995.666 150.352C998.21 151.888 1000.2 154.144 1001.64 157.12C1003.08 160.096 1003.8 163.72 1003.8 167.992V169.792H976.01C976.25 173.872 977.33 176.944 979.25 179.008C981.218 181.072 983.858 182.104 987.17 182.104C989.666 182.104 991.706 181.528 993.29 180.376C994.922 179.176 996.05 177.616 996.674 175.696L1003.15 176.2C1002.15 179.608 1000.23 182.416 997.394 184.624C994.61 186.784 991.202 187.864 987.17 187.864ZM976.01 164.464H997.178C996.89 160.768 995.81 158.056 993.938 156.328C992.066 154.6 989.714 153.736 986.882 153.736C983.954 153.736 981.53 154.648 979.61 156.472C977.738 158.248 976.538 160.912 976.01 164.464Z" fill="#09041B"/>
<path d="M231 59.5901C231 34.8612 249.29 17 273.59 17C297.89 17 316.242 34.8612 316.242 59.5901C316.242 84.3191 298.074 101.944 273.59 101.944C249.106 101.944 231 84.503 231 59.5901ZM273.59 89.8465C291.267 89.8465 302.874 77.6353 302.874 59.4675C302.874 41.2997 291.267 29.0885 273.59 29.0885C255.913 29.0885 244.367 41.7289 244.367 59.4675C244.367 77.2061 256.158 89.8465 273.59 89.8465Z" fill="#09041B"/>
<path d="M327.769 18.209H342.898L371.393 76.9084L399.95 18.209H415.017V100.726H402.131V41.6064L375.94 94.8923H366.829L340.638 41.6064V100.726H327.752V18.209H327.769Z" fill="#09041B"/>
<path d="M431.696 100.717V18.2002H444.459L494.705 81.0868V18.2002H507.468V100.717H494.582L444.459 38.4353V100.717H431.696Z" fill="#09041B"/>
<path d="M536.813 100.717H524.05V18.2002H536.813V100.717Z" fill="#09041B"/>
<path d="M553.422 100.717V18.2002H566.185L616.431 81.0868V18.2002H629.194V100.717H616.308L566.185 38.4353V100.717H553.422Z" fill="#09041B"/>
<path d="M640.661 59.5901C640.661 34.8612 658.951 17 683.251 17C707.55 17 725.902 34.8612 725.902 59.5901C725.902 84.3191 707.734 101.944 683.251 101.944C658.767 101.944 640.661 84.503 640.661 59.5901ZM683.26 89.8465C700.937 89.8465 712.544 77.6353 712.544 59.4675C712.544 41.2997 700.937 29.0885 683.26 29.0885C665.582 29.0885 654.037 41.7289 654.037 59.4675C654.037 77.2061 665.828 89.8465 683.26 89.8465Z" fill="#09041B"/>
<path d="M770.612 18.2705C795.096 18.2705 813.027 35.8952 813.027 59.5292C813.027 83.1631 795.105 100.726 770.612 100.726H737.439V18.2705H770.612ZM770.428 89.1811C787.992 89.1811 799.651 76.2429 799.651 59.5292C799.651 42.8155 787.983 29.6933 770.428 29.6933H750.193V89.1811H770.428Z" fill="#09041B"/>
<path d="M824.529 18.209H882.37V29.8157H837.283V52.5386H875.984V64.1454H837.283V89.1196H883.64V100.726H824.52V18.209H824.529Z" fill="#09041B"/>
<path d="M42.38 119.537V102.507C42.38 101.557 41.87 100.677 41.05 100.197L18.36 87.0874C17.45 86.5674 16.32 87.2174 16.32 88.2674V134.577C16.32 135.527 16.83 136.407 17.65 136.887L74.75 169.867C75.58 170.347 76.08 171.227 76.08 172.177V187.097C76.08 188.147 74.95 188.797 74.04 188.277L1.33 146.327C0.500002 145.847 0 144.967 0 144.017V60.0074C0 58.9574 1.13 58.3074 2.04 58.8274L16.31 67.0574L42.38 82.1174L57.35 90.7474C58.18 91.2274 58.69 92.1074 58.69 93.0574V110.117C58.69 111.067 59.2 111.957 60.03 112.427L74.76 120.917C75.59 121.397 76.1 122.277 76.1 123.227V138.167C76.1 139.217 74.97 139.867 74.06 139.347L43.73 121.857C42.9 121.377 42.39 120.497 42.39 119.547L42.38 119.537Z" fill="#4340dd"/>
    <path d="M168.53 49.7975V143.967C168.53 144.937 168.01 145.837 167.17 146.317L108.7 180.057L100.55 184.757L94.43 188.288C93.52 188.808 92.39 188.157 92.39 187.107V123.267C92.39 122.297 92.91 121.398 93.75 120.918L100.54 116.998L108.45 112.427C109.29 111.937 109.81 111.047 109.81 110.077V83.6975C109.81 82.7275 109.29 81.8275 108.45 81.3475L85.62 68.1575C84.78 67.6675 83.74 67.6675 82.9 68.1575L68.22 76.6175C67.38 77.1075 66.34 77.0975 65.5 76.6175L52.59 69.1475C51.68 68.6275 51.69 67.3175 52.59 66.7975L82.9 49.3175C83.74 48.8375 84.78 48.8375 85.62 49.3175L124.76 71.9175C125.6 72.4075 126.12 73.2975 126.12 74.2675V119.507C126.12 120.477 125.6 121.378 124.76 121.858L110.06 130.347C109.22 130.837 108.7 131.727 108.7 132.697V158.887C108.7 159.937 109.83 160.588 110.74 160.068L150.86 136.887C151.7 136.397 152.22 135.507 152.22 134.537V59.2275C152.22 58.2575 151.7 57.3575 150.86 56.8775L85.62 19.1975C84.78 18.7075 83.74 18.7075 82.9 19.1975L25.85 52.1475C25.01 52.6375 23.97 52.6375 23.13 52.1475L10.22 44.6775C9.31001 44.1575 9.32001 42.8475 10.22 42.3275L82.91 0.3675C83.75 -0.1225 84.79 -0.1225 85.63 0.3675L167.18 47.4575C168.02 47.9475 168.54 48.8375 168.54 49.8075L168.53 49.7975Z" fill="#09041B"/>
</svg>
