<svg viewBox="0 0 942 145" fill="none" xmlns="http://www.w3.org/2000/svg">
  <path
    d="M0.160034 72.43C0.160034 37.42 26.05 12.13 60.46 12.13C94.87 12.13 120.84 37.42 120.84 72.43C120.84 107.44 95.12 132.38 60.46 132.38C25.8 132.38 0.160034 107.69 0.160034 72.43ZM60.46 115.26C85.49 115.26 101.92 97.97 101.92 72.25C101.92 46.53 85.49 29.24 60.46 29.24C35.43 29.24 19.09 47.13 19.09 72.25C19.09 97.37 35.78 115.26 60.46 115.26Z"
    fill="white" />
  <path
    d="M137.16 13.85H158.58L198.92 96.94L239.35 13.85H260.68V130.66H242.44V46.97L205.37 122.41H192.47L155.4 46.97V130.66H137.16V13.85Z"
    fill="white" />
  <path
    d="M284.28 130.66V13.85H302.34L373.47 102.88V13.85H391.53V130.66H373.29L302.33 42.49V130.66H284.27H284.28Z"
    fill="white" />
  <path d="M433.09 130.66H415.03V13.85H433.09V130.66Z" fill="white" />
  <path
    d="M456.59 130.44V13.63H474.65L545.78 102.66V13.63H563.84V130.44H545.6L474.64 42.27V130.44H456.58H456.59Z"
    fill="white" />
  <path
    d="M781.01 13.72C815.67 13.72 841.05 38.66 841.05 72.12C841.05 105.58 815.68 130.44 781.01 130.44H734.05V13.72H781.01ZM780.75 114.1C805.61 114.1 822.12 95.78 822.12 72.12C822.12 48.46 805.61 29.89 780.75 29.89H752.11V114.1H780.75Z"
    fill="white" />
  <path
    d="M857.33 13.63H939.22V30.06H875.4V62.23H930.19V78.66H875.4V114.01H941.03V130.44H857.34V13.63H857.33Z"
    fill="white" />
  <path
    d="M618.35 93.9801L641.22 107.16C641.87 107.53 642.64 107.53 643.29 107.16C643.94 106.79 644.33 106.12 644.33 105.37V94.1101C644.33 93.0201 643.74 92.0001 642.8 91.4601L631.7 85.0601C631.4 84.8901 631.22 84.5701 631.22 84.2201V71.3601C631.22 70.2701 630.63 69.2601 629.69 68.7101L587.99 44.6501C587.34 44.2801 586.57 44.2801 585.92 44.6501C585.27 45.0201 584.88 45.6901 584.88 46.4401V109.77C584.88 110.86 585.47 111.87 586.41 112.42L641.22 144.04C641.55 144.23 641.9 144.33 642.26 144.33C642.62 144.33 642.97 144.24 643.29 144.05C643.94 143.68 644.33 143.01 644.33 142.26V131.01C644.33 129.92 643.74 128.91 642.8 128.36L599.75 103.5C599.45 103.33 599.27 103.01 599.27 102.66L599.24 67.7701L616.35 77.6601C616.64 77.8301 616.82 78.1501 616.82 78.4901V91.3301C616.82 92.4201 617.41 93.4301 618.35 93.9801Z"
    fill="white" />
  <path
    d="M712.47 36.07L650.99 0.570013C650.04 0.0200135 648.85 0.0300135 647.9 0.570013L593.1 32.21C592.45 32.58 592.06 33.25 592.06 34C592.06 34.75 592.45 35.42 593.1 35.8L602.83 41.42C603.79 41.98 604.97 41.98 605.93 41.42L648.95 16.57C649.26 16.4 649.65 16.4 649.95 16.57L699.13 44.98C699.43 45.16 699.63 45.49 699.63 45.84V102.62C699.63 102.98 699.44 103.31 699.13 103.48L668.92 120.98V101.23C668.92 100.87 669.11 100.54 669.42 100.36L680.51 93.96C681.46 93.4 682.05 92.38 682.05 91.28V57.17C682.05 56.07 681.46 55.05 680.5 54.48L650.99 37.45C650.03 36.89 648.85 36.89 647.89 37.45L625.04 50.63C624.39 51.01 624.01 51.67 624.01 52.42C624.01 53.17 624.39 53.84 625.05 54.22L634.78 59.84C635.74 60.4 636.92 60.4 637.88 59.84L648.94 53.46C649.26 53.28 649.65 53.29 649.94 53.46L667.16 63.41C667.46 63.59 667.66 63.92 667.66 64.27V84.16C667.66 84.52 667.47 84.85 667.16 85.03L656.08 91.43C655.12 91.98 654.52 93.01 654.52 94.11V142.24C654.52 142.99 654.91 143.66 655.56 144.03C655.88 144.22 656.24 144.31 656.6 144.31C656.96 144.31 657.31 144.22 657.63 144.03L712.46 112.39C713.42 111.84 714.02 110.81 714.02 109.71V38.71C714.02 37.61 713.43 36.58 712.47 36.03V36.07Z"
    fill="white" />
</svg>