<svg viewBox="0 0 977 189" fill="none" xmlns="http://www.w3.org/2000/svg">
<path d="M231.36 94.3778C231.36 66.1478 252.24 45.7578 279.98 45.7578C307.72 45.7578 328.67 66.1478 328.67 94.3778C328.67 122.608 307.93 142.728 279.98 142.728C252.03 142.728 231.36 122.818 231.36 94.3778ZM279.98 128.918C300.16 128.918 313.41 114.978 313.41 94.2378C313.41 73.4978 300.16 59.5578 279.98 59.5578C259.8 59.5578 246.62 73.9878 246.62 94.2378C246.62 114.488 260.08 128.918 279.98 128.918Z" fill="#fff"/>
<path d="M341.831 47.1377H359.101L391.631 114.148L424.231 47.1377H441.431V141.338H426.721V73.8477L396.821 134.678H386.421L356.521 73.8477V141.338H341.811V47.1377H341.831Z" fill="#fff"/>
<path d="M460.47 141.328V47.1279H475.04L532.4 118.918V47.1279H546.97V141.328H532.26L475.04 70.2279V141.328H460.47Z" fill="#fff"/>
<path d="M580.47 141.328H565.9V47.1279H580.47V141.328Z" fill="#fff"/>
<path d="M599.43 141.328V47.1279H614L671.36 118.918V47.1279H685.93V141.328H671.22L614 70.2279V141.328H599.43Z" fill="#fff"/>
<path d="M699.02 94.3778C699.02 66.1478 719.9 45.7578 747.64 45.7578C775.38 45.7578 796.33 66.1478 796.33 94.3778C796.33 122.608 775.59 142.728 747.64 142.728C719.69 142.728 699.02 122.818 699.02 94.3778ZM747.65 128.918C767.83 128.918 781.08 114.978 781.08 94.2378C781.08 73.4978 767.83 59.5578 747.65 59.5578C727.47 59.5578 714.29 73.9878 714.29 94.2378C714.29 114.488 727.75 128.918 747.65 128.918Z" fill="#fff"/>
<path d="M847.37 47.208C875.32 47.208 895.79 67.328 895.79 94.308C895.79 121.288 875.33 141.338 847.37 141.338H809.5V47.208H847.37ZM847.16 128.158C867.21 128.158 880.52 113.388 880.52 94.308C880.52 75.228 867.2 60.248 847.16 60.248H824.06V128.158H847.16Z" fill="#fff"/>
<path d="M908.92 47.1377H974.95V60.3877H923.48V86.3277H967.66V99.5777H923.48V128.088H976.4V141.338H908.91V47.1377H908.92Z" fill="#fff"/>
<path d="M42.38 119.537V102.507C42.38 101.557 41.87 100.677 41.05 100.197L18.36 87.0874C17.45 86.5674 16.32 87.2174 16.32 88.2674V134.577C16.32 135.527 16.83 136.407 17.65 136.887L74.75 169.867C75.58 170.347 76.08 171.227 76.08 172.177V187.097C76.08 188.147 74.95 188.797 74.04 188.277L1.33 146.327C0.500002 145.847 0 144.967 0 144.017V60.0074C0 58.9574 1.13 58.3074 2.04 58.8274L16.31 67.0574L42.38 82.1174L57.35 90.7474C58.18 91.2274 58.69 92.1074 58.69 93.0574V110.117C58.69 111.067 59.2 111.957 60.03 112.427L74.76 120.917C75.59 121.397 76.1 122.277 76.1 123.227V138.167C76.1 139.217 74.97 139.867 74.06 139.347L43.73 121.857C42.9 121.377 42.39 120.497 42.39 119.547L42.38 119.537Z" fill="#4340DD"/>
<path d="M168.53 49.7975V143.967C168.53 144.937 168.01 145.837 167.17 146.317L108.7 180.057L100.55 184.757L94.4298 188.288C93.5198 188.808 92.3898 188.157 92.3898 187.107V123.267C92.3898 122.297 92.9098 121.398 93.7498 120.918L100.54 116.998L108.45 112.427C109.29 111.937 109.81 111.047 109.81 110.077V83.6975C109.81 82.7275 109.29 81.8275 108.45 81.3475L85.6198 68.1575C84.7798 67.6675 83.7398 67.6675 82.8998 68.1575L68.2198 76.6175C67.3798 77.1075 66.3398 77.0975 65.4998 76.6175L52.5898 69.1475C51.6798 68.6275 51.6898 67.3175 52.5898 66.7975L82.8998 49.3175C83.7398 48.8375 84.7798 48.8375 85.6198 49.3175L124.76 71.9175C125.6 72.4075 126.12 73.2975 126.12 74.2675V119.507C126.12 120.477 125.6 121.378 124.76 121.858L110.06 130.347C109.22 130.837 108.7 131.727 108.7 132.697V158.887C108.7 159.937 109.83 160.588 110.74 160.068L150.86 136.887C151.7 136.397 152.22 135.507 152.22 134.537V59.2275C152.22 58.2575 151.7 57.3575 150.86 56.8775L85.6198 19.1975C84.7798 18.7075 83.7398 18.7075 82.8998 19.1975L25.8498 52.1475C25.0098 52.6375 23.9698 52.6375 23.1298 52.1475L10.2198 44.6775C9.30977 44.1575 9.31977 42.8475 10.2198 42.3275L82.9098 0.3675C83.7498 -0.1225 84.7898 -0.1225 85.6298 0.3675L167.18 47.4575C168.02 47.9475 168.54 48.8375 168.54 49.8075L168.53 49.7975Z" fill="#fff"/>
</svg>
