<?xml version="1.0" encoding="UTF-8"?>
<svg id="logos" xmlns="http://www.w3.org/2000/svg" viewBox="0 0 1183.19 386.52">
  <defs>
    <style>
      .cls-1 {
        fill: #fff;
      }
    </style>
  </defs>
  <g>
    <path class="cls-1" d="M121.16,193.43c0-35.01,25.89-60.3,60.3-60.3s60.38,25.29,60.38,60.3-25.72,59.95-60.38,59.95-60.3-24.69-60.3-59.95ZM181.46,236.26c25.03,0,41.46-17.29,41.46-43.01s-16.43-43.01-41.46-43.01-41.37,17.89-41.37,43.01,16.69,43.01,41.37,43.01Z"/>
    <path class="cls-1" d="M258.16,134.85h21.42l40.34,83.09,40.43-83.09h21.33v116.81h-18.24v-83.69l-37.07,75.44h-12.9l-37.07-75.44v83.69h-18.24v-116.81Z"/>
    <path class="cls-1" d="M405.28,251.66v-116.81h18.06l71.13,89.03v-89.03h18.06v116.81h-18.24l-70.96-88.17v88.17h-18.06Z"/>
    <path class="cls-1" d="M554.09,251.66h-18.06v-116.81h18.06v116.81Z"/>
  </g>
  <path class="cls-1" d="M577.59,251.44v-116.81h18.06l71.13,89.03v-89.03h18.06v116.81h-18.24l-70.96-88.17v88.17h-18.06Z"/>
  <path class="cls-1" d="M902.01,134.72c34.66,0,60.04,24.94,60.04,58.4s-25.37,58.32-60.04,58.32h-46.96v-116.72h46.96ZM901.75,235.1c24.86,0,41.37-18.32,41.37-41.98s-16.51-42.23-41.37-42.23h-28.64v84.21h28.64Z"/>
  <path class="cls-1" d="M978.33,134.63h81.89v16.43h-63.82v32.17h54.79v16.43h-54.79v35.35h65.63v16.43h-83.69v-116.81Z"/>
  <g>
    <path class="cls-1" d="M739.35,214.98l22.87,13.18c.65.37,1.42.37,2.07,0,.65-.37,1.04-1.04,1.04-1.79v-11.26c0-1.09-.59-2.11-1.53-2.65l-11.1-6.4c-.3-.17-.48-.49-.48-.84v-12.86c0-1.09-.59-2.1-1.53-2.65l-41.7-24.06c-.65-.37-1.42-.37-2.07,0-.65.37-1.04,1.04-1.04,1.79v63.33c0,1.09.59,2.1,1.53,2.65l54.81,31.62c.33.19.68.29,1.04.29s.71-.09,1.03-.28c.65-.37,1.04-1.04,1.04-1.79v-11.25c0-1.09-.59-2.1-1.53-2.65l-43.05-24.86c-.3-.17-.48-.49-.48-.84l-.03-34.89,17.11,9.89c.29.17.47.49.47.83v12.84c0,1.09.59,2.1,1.53,2.65Z"/>
    <path class="cls-1" d="M833.47,157.07l-61.48-35.5c-.95-.55-2.14-.54-3.09,0l-54.8,31.64c-.65.37-1.04,1.04-1.04,1.79s.39,1.42,1.04,1.8l9.73,5.62c.96.56,2.14.56,3.1,0l43.02-24.85c.31-.17.7-.17,1,0l49.18,28.41c.3.18.5.51.5.86v56.78c0,.36-.19.69-.5.86l-30.21,17.5v-19.75c0-.36.19-.69.5-.87l11.09-6.4c.95-.56,1.54-1.58,1.54-2.68v-34.11c0-1.1-.59-2.12-1.55-2.69l-29.51-17.03c-.96-.56-2.14-.56-3.1,0l-22.85,13.18c-.65.38-1.03,1.04-1.03,1.79s.38,1.42,1.04,1.8l9.73,5.62c.96.56,2.14.56,3.1,0l11.06-6.38c.32-.18.71-.17,1,0l17.22,9.95c.3.18.5.51.5.86v19.89c0,.36-.19.69-.5.87l-11.08,6.4c-.96.55-1.56,1.58-1.56,2.68v48.13c0,.75.39,1.42,1.04,1.79.32.19.68.28,1.04.28s.71-.09,1.03-.28l54.83-31.64c.96-.55,1.56-1.58,1.56-2.68v-71c0-1.1-.59-2.13-1.55-2.68Z"/>
  </g>
</svg>