<?xml version="1.0" encoding="UTF-8"?>
<svg id="logos" xmlns="http://www.w3.org/2000/svg" viewBox="0 0 1172.6 384.67">
  <defs>
    <style>
      .cls-1 {
        fill: #09041b;
      }
    </style>
  </defs>
  <g>
    <g>
      <path class="cls-1" d="M329.45,192.48c0-28.23,20.88-48.62,48.62-48.62s48.69,20.39,48.69,48.62-20.74,48.35-48.69,48.35-48.62-19.91-48.62-48.35ZM378.07,227.02c20.18,0,33.43-13.94,33.43-34.68s-13.25-34.68-33.43-34.68-33.36,14.43-33.36,34.68,13.46,34.68,33.36,34.68Z"/>
      <path class="cls-1" d="M439.92,145.24h17.27l32.53,67.01,32.6-67.01h17.2v94.2h-14.71v-67.49l-29.9,60.83h-10.4l-29.9-60.83v67.49h-14.71v-94.2Z"/>
      <path class="cls-1" d="M558.56,239.43v-94.2h14.57l57.36,71.79v-71.79h14.57v94.2h-14.71l-57.22-71.1v71.1h-14.57Z"/>
      <path class="cls-1" d="M678.56,239.43h-14.57v-94.2h14.57v94.2Z"/>
    </g>
    <g>
      <path class="cls-1" d="M697.52,239.43v-94.2h14.57l57.36,71.79v-71.79h14.57v94.2h-14.71l-57.22-71.1v71.1h-14.57Z"/>
      <path class="cls-1" d="M797.11,192.48c0-28.23,20.88-48.62,48.62-48.62s48.69,20.39,48.69,48.62-20.74,48.35-48.69,48.35-48.62-19.91-48.62-48.35ZM845.74,227.02c20.18,0,33.43-13.94,33.43-34.68s-13.25-34.68-33.43-34.68-33.36,14.43-33.36,34.68,13.46,34.68,33.36,34.68Z"/>
      <path class="cls-1" d="M945.46,145.31c27.95,0,48.42,20.12,48.42,47.1s-20.46,47.03-48.42,47.03h-37.87v-94.13h37.87ZM945.25,226.26c20.05,0,33.36-14.77,33.36-33.85s-13.32-34.06-33.36-34.06h-23.1v67.91h23.1Z"/>
      <path class="cls-1" d="M1007.01,145.24h66.03v13.25h-51.47v25.94h44.18v13.25h-44.18v28.51h52.92v13.25h-67.49v-94.2Z"/>
    </g>
  </g>
  <g>
    <path class="cls-1" d="M140.47,217.64v-17.03c0-.95-.51-1.83-1.33-2.31l-22.69-13.11c-.91-.52-2.04.13-2.04,1.18v46.31c0,.95.51,1.83,1.33,2.31l57.1,32.98c.83.48,1.33,1.36,1.33,2.31v14.92c0,1.05-1.13,1.7-2.04,1.18l-72.71-41.95c-.83-.48-1.33-1.36-1.33-2.31v-84.01c0-1.05,1.13-1.7,2.04-1.18l14.27,8.23,26.07,15.06,14.97,8.63c.83.48,1.34,1.36,1.34,2.31v17.06c0,.95.51,1.84,1.34,2.31l14.73,8.49c.83.48,1.34,1.36,1.34,2.31v14.94c0,1.05-1.13,1.7-2.04,1.18l-30.33-17.49c-.83-.48-1.34-1.36-1.34-2.31Z"/>
    <path class="cls-1" d="M266.62,147.9v94.17c0,.97-.52,1.87-1.36,2.35l-58.47,33.74-8.15,4.7-6.12,3.53c-.91.52-2.04-.13-2.04-1.18v-63.84c0-.97.52-1.87,1.36-2.35l6.79-3.92,7.91-4.57c.84-.49,1.36-1.38,1.36-2.35v-26.38c0-.97-.52-1.87-1.36-2.35l-22.83-13.19c-.84-.49-1.88-.49-2.72,0l-14.68,8.46c-.84.49-1.88.48-2.72,0l-12.91-7.47c-.91-.52-.9-1.83,0-2.35l30.31-17.48c.84-.48,1.88-.48,2.72,0l39.14,22.6c.84.49,1.36,1.38,1.36,2.35v45.24c0,.97-.52,1.87-1.36,2.35l-14.7,8.49c-.84.49-1.36,1.38-1.36,2.35v26.19c0,1.05,1.13,1.7,2.04,1.18l40.12-23.18c.84-.49,1.36-1.38,1.36-2.35v-75.31c0-.97-.52-1.87-1.36-2.35l-65.24-37.68c-.84-.49-1.88-.49-2.72,0l-57.05,32.95c-.84.49-1.88.49-2.72,0l-12.91-7.47c-.91-.52-.9-1.83,0-2.35l72.69-41.96c.84-.49,1.88-.49,2.72,0l81.55,47.09c.84.49,1.36,1.38,1.36,2.35Z"/>
  </g>
</svg>