<svg width="1275" height="1005" viewBox="0 0 1275 1005" fill="none" xmlns="http://www.w3.org/2000/svg">
<ellipse cx="613" cy="580" rx="338" ry="305" fill="url(#paint0_radial_386_1188)"/>
<line x1="617.026" y1="289.001" x2="617" y2="400.001" stroke="white" stroke-opacity="0.6" stroke-width="8"/>
<path d="M792 530.5L819.004 517.502L839.004 504.002L857.504 487.002L872.503 467.502L884.503 449.001L893.502 435.499L905.501 421.499L918.502 410.498L931.501 402.999L943.501 398.999L955.001 395.999L971.001 393.499L991.716 391.592" stroke="white" stroke-opacity="0.6" stroke-width="8"/>
<path d="M765 680L790.375 679.999L807.088 681.506L821.775 685.026L836.462 690.558L853.175 698.604L865.33 706.148L879.004 716.71L894.703 729.283L911.922 741.354L926.609 749.4L942.816 755.938L957.503 760.464L974.216 764.487L996.5 767" stroke="white" stroke-opacity="0.6" stroke-width="8"/>
<path d="M315.36 446L330.5 454.468L343 461.5L352.5 467.5L359.5 472.5L366.5 477L373.5 482L383.5 489L390.5 494L399.5 499.5L409.5 505L419 509.5L428.5 513L440 517L456.5 521" stroke="white" stroke-opacity="0.6" stroke-width="8"/>
<path d="M418 823.5L442 814L458.5 805L473 794.5L481 787L492 775.5L499.5 765L505 756L510.5 746L514.5 737.5L521.5 718.5" stroke="white" stroke-opacity="0.6" stroke-width="8"/>
<rect x="437" y="397" width="363" height="365" rx="181.5" fill="#09090A"/>
<rect x="437.5" y="397.5" width="362" height="364" rx="181" stroke="#4340DD" stroke-opacity="0.8"/>
<g clip-path="url(#clip0_386_1188)">
<path d="M579.125 603.055C579.122 603.052 579.12 603.048 579.12 603.043V587.372C579.12 586.497 578.649 585.687 577.892 585.245L556.948 573.176C556.108 572.697 555.065 573.295 555.065 574.262V616.896C555.065 617.771 555.535 618.581 556.292 619.023L609 649.386C609.766 649.827 610.228 650.638 610.228 651.512V665.248C610.228 666.215 609.185 666.813 608.345 666.334L541.228 627.714C540.462 627.272 540 626.462 540 625.587V548.245C540 547.278 541.043 546.68 541.883 547.159L555.055 554.735L579.12 568.6L592.938 576.545C593.705 576.987 594.175 577.797 594.175 578.672V594.378C594.175 595.252 594.646 596.072 595.412 596.504L609.009 604.32C609.775 604.762 610.246 605.573 610.246 606.447V620.201C610.246 621.168 609.203 621.766 608.363 621.288L580.366 605.186C579.602 604.745 579.132 603.938 579.129 603.066C579.129 603.062 579.128 603.058 579.125 603.055V603.055Z" fill="#4340DD"/>
<path d="M695.571 538.85C695.569 538.848 695.566 538.849 695.566 538.852V625.541C695.566 626.434 695.086 627.263 694.311 627.705L640.338 658.767L632.815 663.094L627.166 666.345C626.326 666.823 625.283 666.224 625.283 665.257V606.484C625.283 605.591 625.763 604.763 626.538 604.321L632.806 600.712L640.108 596.504C640.883 596.053 641.363 595.234 641.363 594.341V570.055C641.363 569.162 640.883 568.333 640.108 567.891L619.034 555.748C618.258 555.297 617.298 555.297 616.523 555.748L602.972 563.537C602.197 563.988 601.237 563.979 600.461 563.537L588.544 556.66C587.704 556.181 587.714 554.975 588.544 554.496L616.523 538.403C617.298 537.962 618.258 537.962 619.034 538.403L655.163 559.21C655.938 559.661 656.418 560.48 656.418 561.373V603.022C656.418 603.915 655.938 604.745 655.163 605.187L641.594 613.002C640.818 613.453 640.338 614.272 640.338 615.165V639.277C640.338 640.244 641.381 640.843 642.221 640.364L679.255 619.023C680.031 618.572 680.511 617.752 680.511 616.859V547.527C680.511 546.634 680.031 545.805 679.255 545.363L619.034 510.674C618.258 510.223 617.298 510.223 616.523 510.674L563.861 541.009C563.086 541.46 562.126 541.46 561.351 541.009L549.434 534.132C548.594 533.653 548.603 532.447 549.434 531.968L616.532 493.338C617.308 492.887 618.268 492.887 619.043 493.338L694.32 536.691C695.093 537.141 695.573 537.958 695.575 538.848C695.575 538.85 695.572 538.852 695.571 538.85V538.85Z" fill="#4340DD"/>
</g>
<rect x="55" y="299" width="264" height="258" rx="38" fill="#09090A"/>
<rect x="55.5" y="299.5" width="263" height="257" rx="37.5" stroke="white" stroke-opacity="0.8"/>
<path d="M201.562 397.813C200.608 398.786 200.073 400.095 200.073 401.458C200.073 402.822 200.608 404.131 201.562 405.104L209.896 413.438C210.869 414.392 212.178 414.926 213.541 414.926C214.905 414.926 216.214 414.392 217.187 413.438L233.364 397.266C235.031 395.589 237.859 396.12 238.484 398.401C240.058 404.124 239.969 410.177 238.228 415.852C236.487 421.527 233.166 426.588 228.653 430.444C224.14 434.3 218.623 436.791 212.746 437.625C206.869 438.46 200.876 437.603 195.469 435.156L154.271 476.354C152.199 478.425 149.389 479.589 146.459 479.588C143.529 479.588 140.72 478.424 138.648 476.352C136.577 474.28 135.414 471.47 135.414 468.54C135.415 465.61 136.579 462.8 138.651 460.729L179.849 419.531C177.402 414.124 176.545 408.131 177.38 402.254C178.214 396.377 180.705 390.86 184.561 386.347C188.417 381.834 193.478 378.513 199.153 376.772C204.828 375.031 210.881 374.942 216.604 376.516C218.885 377.141 219.416 379.964 217.745 381.641L201.562 397.813Z" stroke="#4E4B66" stroke-width="8" stroke-linecap="round" stroke-linejoin="round"/>
<rect x="992" y="210" width="264" height="258" rx="38" fill="#09090A"/>
<rect x="992.5" y="210.5" width="263" height="257" rx="37.5" stroke="white" stroke-opacity="0.8"/>
<path d="M1155.9 379H1106.59C1099.06 378.998 1091.68 376.908 1085.28 372.962C1078.87 369.017 1073.69 363.372 1070.31 356.659C1066.93 349.946 1065.5 342.428 1066.16 334.947C1066.82 327.465 1069.55 320.314 1074.05 314.292C1078.55 308.271 1084.64 303.617 1091.64 300.849C1098.64 298.082 1106.28 297.311 1113.69 298.622C1121.11 299.933 1128.01 303.274 1133.63 308.273C1139.25 313.272 1143.36 319.731 1145.51 326.929H1155.9C1162.82 326.929 1169.46 329.672 1174.35 334.554C1179.25 339.437 1182 346.059 1182 352.964C1182 359.869 1179.25 366.492 1174.35 371.374C1169.46 376.257 1162.82 379 1155.9 379Z" stroke="#4E4B66" stroke-width="8" stroke-linecap="round" stroke-linejoin="round"/>
<rect x="158" y="715" width="264" height="258" rx="38" fill="#09090A"/>
<rect x="158.5" y="715.5" width="263" height="257" rx="37.5" stroke="white" stroke-opacity="0.8"/>
<path d="M290.5 869.542V890.375" stroke="#4E4B66" stroke-width="8" stroke-linecap="round" stroke-linejoin="round"/>
<path d="M302.505 820.219L307.313 818.229" stroke="#4E4B66" stroke-width="8" stroke-linecap="round" stroke-linejoin="round"/>
<path d="M307.313 806.271L302.505 804.276" stroke="#4E4B66" stroke-width="8" stroke-linecap="round" stroke-linejoin="round"/>
<path d="M315.771 797.812L313.776 793" stroke="#4E4B66" stroke-width="8" stroke-linecap="round" stroke-linejoin="round"/>
<path d="M315.771 826.688L313.776 831.495" stroke="#4E4B66" stroke-width="8" stroke-linecap="round" stroke-linejoin="round"/>
<path d="M327.729 797.812L329.724 793" stroke="#4E4B66" stroke-width="8" stroke-linecap="round" stroke-linejoin="round"/>
<path d="M329.719 831.5L327.729 826.688" stroke="#4E4B66" stroke-width="8" stroke-linecap="round" stroke-linejoin="round"/>
<path d="M336.188 806.271L341 804.276" stroke="#4E4B66" stroke-width="8" stroke-linecap="round" stroke-linejoin="round"/>
<path d="M336.188 818.229L341 820.224" stroke="#4E4B66" stroke-width="8" stroke-linecap="round" stroke-linejoin="round"/>
<path d="M342.583 848.708V859.125C342.583 861.888 341.486 864.537 339.532 866.491C337.579 868.444 334.929 869.542 332.167 869.542H248.833C246.07 869.542 243.421 868.444 241.467 866.491C239.514 864.537 238.417 861.888 238.417 859.125V807.042C238.417 804.279 239.514 801.629 241.467 799.676C243.421 797.722 246.07 796.625 248.833 796.625H285.292" stroke="#4E4B66" stroke-width="8" stroke-linecap="round" stroke-linejoin="round"/>
<path d="M269.667 890.375H311.333" stroke="#4E4B66" stroke-width="8" stroke-linecap="round" stroke-linejoin="round"/>
<path d="M321.75 827.875C330.379 827.875 337.375 820.879 337.375 812.25C337.375 803.621 330.379 796.625 321.75 796.625C313.121 796.625 306.125 803.621 306.125 812.25C306.125 820.879 313.121 827.875 321.75 827.875Z" stroke="#4E4B66" stroke-width="8" stroke-linecap="round" stroke-linejoin="round"/>
<rect x="486" y="31" width="264" height="258" rx="38" fill="#09090A"/>
<rect x="486.5" y="31.5" width="263" height="257" rx="37.5" stroke="white" stroke-opacity="0.8"/>
<path d="M634.125 107.417H587.25C584.487 107.417 581.838 108.514 579.884 110.468C577.931 112.421 576.833 115.071 576.833 117.834V201.167C576.833 203.93 577.931 206.579 579.884 208.533C581.838 210.486 584.487 211.584 587.25 211.584H649.75C652.513 211.584 655.162 210.486 657.116 208.533C659.069 206.579 660.167 203.93 660.167 201.167V133.459L634.125 107.417Z" stroke="#4E4B66" stroke-width="8" stroke-linecap="round" stroke-linejoin="round"/>
<path d="M628.917 107.417V128.25C628.917 131.013 630.014 133.663 631.967 135.616C633.921 137.57 636.57 138.667 639.333 138.667H660.167" stroke="#4E4B66" stroke-width="8" stroke-linecap="round" stroke-linejoin="round"/>
<path d="M597.667 159.5H639.333" stroke="#4E4B66" stroke-width="8" stroke-linecap="round" stroke-linejoin="round"/>
<path d="M608.083 154.292V164.709" stroke="#4E4B66" stroke-width="8" stroke-linecap="round" stroke-linejoin="round"/>
<path d="M597.667 185.542H639.333" stroke="#4E4B66" stroke-width="8" stroke-linecap="round" stroke-linejoin="round"/>
<path d="M628.917 180.333V190.75" stroke="#4E4B66" stroke-width="8" stroke-linecap="round" stroke-linejoin="round"/>
<rect x="992" y="636" width="264" height="258" rx="38" fill="#09090A"/>
<rect x="992.5" y="636.5" width="263" height="257" rx="37.5" stroke="white" stroke-opacity="0.8"/>
<path d="M1114.08 759.292C1125.59 759.292 1134.92 749.964 1134.92 738.458C1134.92 726.952 1125.59 717.625 1114.08 717.625C1102.58 717.625 1093.25 726.952 1093.25 738.458C1093.25 749.964 1102.58 759.292 1114.08 759.292Z" stroke="#4E4B66" stroke-width="8" stroke-linecap="round" stroke-linejoin="round"/>
<path d="M1115.65 780.125H1098.46C1092.93 780.125 1087.63 782.32 1083.73 786.227C1079.82 790.134 1077.62 795.433 1077.62 800.958V811.375" stroke="#4E4B66" stroke-width="8" stroke-linecap="round" stroke-linejoin="round"/>
<path d="M1150.54 806.167C1159.17 806.167 1166.17 799.171 1166.17 790.542C1166.17 781.913 1159.17 774.917 1150.54 774.917C1141.91 774.917 1134.92 781.913 1134.92 790.542C1134.92 799.171 1141.91 806.167 1150.54 806.167Z" stroke="#4E4B66" stroke-width="8" stroke-linecap="round" stroke-linejoin="round"/>
<path d="M1171.38 811.375L1161.48 801.479" stroke="#4E4B66" stroke-width="8" stroke-linecap="round" stroke-linejoin="round"/>
<defs>
<radialGradient id="paint0_radial_386_1188" cx="0" cy="0" r="1" gradientUnits="userSpaceOnUse" gradientTransform="translate(613 580) rotate(90) scale(305 338)">
<stop stop-color="#4340DD" stop-opacity="0.2"/>
<stop offset="1" stop-color="#4340DD" stop-opacity="0"/>
</radialGradient>
<clipPath id="clip0_386_1188">
<rect width="156" height="174" fill="white" transform="translate(540 493)"/>
</clipPath>
</defs>
</svg>
